# xmcd
#
# Track frame offsets:
#  150
#  31486
#  62737
#  79508
#  99003
#  112693
#  130568
#  144956
#  178237
#  194240
#  215830
#  251598
#
# Disc length: 3493 seconds
#
# Revision: 0
# Processed by: cddbd v1.5.1PL2 Copyright (c) Steve Scherf et al.
# Submitted via: Collectorz.com_Music_Collector 6.11
#
DISCID=a20da30c
DTITLE=Todd Snider - Wow Hall, Eugene - 05/10/2005 [CD1)
DYEAR=2005
DGENRE=Alt Country
TTITLE0=Can't Complain
TTITLE1=Ballad Of The Kingsmen
TTITLE2=Tension
TTITLE3=Old Times
TTITLE4=Statistician's Blues
TTITLE5=Train Song
TTITLE6=Feel Like Missing You Today
TTITLE7=High Street Incident
TTITLE8=Horseshoe Lake
TTITLE9=Doublewide Blues
TTITLE10=Don't It Make You Want To Dance
TTITLE11=Incarcerated
EXTD=
EXTT0=
EXTT1=
EXTT2=
EXTT3=
EXTT4=
EXTT5=
EXTT6=
EXTT7=
EXTT8=
EXTT9=
EXTT10=
EXTT11=
PLAYORDER=
